<svg id="Layer_1" data-name="Layer 1" xmlns="http://www.w3.org/2000/svg" xmlns:xlink="http://www.w3.org/1999/xlink" viewBox="0 0 128.11 89.07"><defs><style>.cls-1{fill:url(#linear-gradient);}</style><linearGradient id="linear-gradient" x1="691.26" y1="462.33" x2="819.37" y2="462.33" gradientUnits="userSpaceOnUse"><stop offset="0" stop-color="#f7c36c"/><stop offset="1" stop-color="#f2a2b1"/></linearGradient></defs><title>icon-code</title><path class="cls-1" d="M724.74,481.75A7,7,0,1,1,714.21,491q-10.58-12.09-21.2-24.14a7,7,0,0,1,0-9.24l21-24.05a7,7,0,1,1,10.54,9.22l-17,19.43Q716.17,472,724.74,481.75Zm92.88-24.49Q807,445.2,796.42,433.12a7,7,0,0,0-10.54,9.22q8.57,9.8,17.17,19.56l-17,19.43a7,7,0,1,0,10.54,9.22l21-24.05A7,7,0,0,0,817.62,457.26Zm-42-38.82a7,7,0,0,0-9.28,3.46L732,497a7,7,0,1,0,12.73,5.82L779,427.71A7,7,0,0,0,775.59,418.43Z" transform="translate(-691.26 -417.8)"/></svg>