<svg id="Layer_1" data-name="Layer 1" xmlns="http://www.w3.org/2000/svg" viewBox="0 0 435.53 318.72"><defs><style>.cls-1,.cls-3,.cls-5,.cls-6{fill:#606060;}.cls-1,.cls-4,.cls-5{stroke:#606060;stroke-miterlimit:10;}.cls-1,.cls-5{stroke-width:0.75px;}.cls-1,.cls-2,.cls-6{opacity:0.07;}.cls-4{fill:none;stroke-width:5px;}</style></defs><title>icon-pattern</title><path class="cls-1" d="M177.18,33.2c-0.32-1.07-1.46-2.2-1.94-3.27a18.92,18.92,0,0,1-1.19-3.62,69.07,69.07,0,0,1-1-7.25,0.33,0.33,0,0,0-.34-0.37,17.84,17.84,0,0,1-2.87-.55,17.78,17.78,0,0,0-3.22-.89c-1.19-.15-2.67.82-3.85,0.9-2.36.16-7.41-.35-9,0.65,0.25-.16-1.43-1.43-1.64-1.52a5.77,5.77,0,0,0-2-.3c-1.65,0-3.46-.15-4.18-1.14a5.19,5.19,0,0,1-1.53.4,1.27,1.27,0,0,1-.68-0.39,4.59,4.59,0,0,1-.76-2.46,51,51,0,0,1-.21-7.18c0-.51,0-1,0-1.54a1.6,1.6,0,0,0-.11-0.76C140.95,1.55,131,3,127.32,3l0,28.55-18.53,0c0.32,2.14,5.48,5.18,7.36,7.17,3,3.12,2.59,6.66,6.39,9.41,1.44,1,2.85,2.86,4.9,1.69,1.49-.86,1-3.84,2.35-4.76,2.71-1.81,7.6.06,9.36,2.17,2.35,2.82,3.78,6.24,6.1,9,1.64,2,1.84,3,3,5.14,0.84,1.47,2,3.39,3.49,4.3,1.14,0.7,9.73,2.34,10.05,1.26s-1-2.15-1.4-2.92a18.44,18.44,0,0,1-1.2-3.82c-0.11-.44-0.12-1.07.33-1.15a0.78,0.78,0,0,0,.41-0.08,0.4,0.4,0,0,0,.1-0.26c0.12-1.13-.07-3.17.83-4a16.85,16.85,0,0,1,2.37-2.41l0.49-1.75c-0.13-.11.28-0.21,0.44-0.27,1.51-.52,3.56,0,4.93-0.82,2.77-1.67.65-4.92,2.63-6.75a21.24,21.24,0,0,0,2.44.4A2.86,2.86,0,0,0,176.37,42C177.61,40.21,177.83,35.39,177.18,33.2ZM158.43,51.45l-3.48-1.65-3.33,1.93,0.49-3.82-2.86-2.57,3.78-.71,1.56-3.52,1.84,3.38,3.83,0.4-2.64,2.8Z"/><path class="cls-1" d="M67,135.58a35.8,35.8,0,0,1-35.8,35.8c-10.58,0-21.29-4.84-27.79-13.28a57.37,57.37,0,0,0,9.45,0,36.13,36.13,0,0,0,31.62-35.56,36.52,36.52,0,0,0-7.78-22.31C53.84,102.27,67,118.62,67,135.58Zm-17.06,20a3.44,3.44,0,1,0,0,4.87A3.44,3.44,0,0,0,49.91,155.61Zm-10.49-4.28a1.75,1.75,0,1,0,1.75,1.75A1.75,1.75,0,0,0,39.42,151.33ZM57,129.88a2.58,2.58,0,1,0-2.58-2.58A2.58,2.58,0,0,0,57,129.88ZM34,158.63a4.6,4.6,0,1,0,4.6,4.6A4.6,4.6,0,0,0,34,158.63ZM60.8,132.24a2,2,0,1,0,2,2A2,2,0,0,0,60.8,132.24Z"/><path class="cls-1" d="M167.85,131.1H157.27c1.08-13.73,8.93-21.53,9.49-22.07a4.71,4.71,0,0,0-6.47-6.85,44,44,0,0,0-10.51,18.19,47.43,47.43,0,0,0-1.94,10.73h-6.56a47.43,47.43,0,0,0-1.94-10.73,44,44,0,0,0-10.51-18.19,4.71,4.71,0,0,0-6.46,6.86c0.13,0.13,8.26,8,9.4,22.06h-13a4.71,4.71,0,0,0,0,9.42h12.69c-1,6.73-3.62,14.43-9,23a4.71,4.71,0,1,0,8,5c4.55-7.28,9.16-17,10.51-28h7.14c1.34,11,6,20.7,10.51,28a4.71,4.71,0,0,0,8-5c-5.36-8.58-8-16.27-9-23h10.23A4.71,4.71,0,1,0,167.85,131.1Z"/><g class="cls-2"><path class="cls-3" d="M383.53,133c-2.65-2.13-6.56-2-9.9-.66a2,2,0,0,0,.36-0.51,2.8,2.8,0,0,0,0-1.84c-0.6-2.66-3.55-5.65-7-7l1.21,0.19a2.87,2.87,0,0,0,1.17,0,3.63,3.63,0,0,0,1.49-1c3.44-3,4.58-10.5-1.49-11.67-4.35-.79-7.69,3.69-7.88,7a7.13,7.13,0,0,0,.89,4,1.87,1.87,0,0,0,.65.74,6.42,6.42,0,0,0-4,1.53c-3.57,3.13-.42,8.63,3.1,10.95a12,12,0,0,0,5,1.83,3.91,3.91,0,0,0,.75,0,7.7,7.7,0,0,0-1.25,2.71,25.32,25.32,0,0,0-.42,5.69,2.77,2.77,0,0,0,0,.33,9.38,9.38,0,0,0-5.28-1.45,9.06,9.06,0,0,0-6,2.34,3.32,3.32,0,0,0,.25-0.36,4.43,4.43,0,0,0,.44-2.42c0.17-6.2-8.91-12.81-16.25-6.69l-0.33.3a3.79,3.79,0,0,0-.06-1.3c-0.52-3.58-5.51-7.44-10-6.22a6,6,0,0,0,.07-1.06c0.12-2.16-3-4.55-6.25-2.55a2.78,2.78,0,0,0-.39,4.8,4.65,4.65,0,0,0,2.23.78,2.12,2.12,0,0,0,1.59-.53,3.73,3.73,0,0,1,.38-0.2l-0.07.06c-3.28,2.82-1,7.68,2.29,9.45a9.61,9.61,0,0,0,3.3,1c0.85,0.11,1.7.17,2.55,0.26,1.26,0.14.44-.15,1.32-0.91a11.43,11.43,0,0,0,1.43-1.62,8.93,8.93,0,0,0,3.12,11.65,10.67,10.67,0,0,0,4.34,1.28c1.16,0.11,2.33.14,3.49,0.23,1.73,0.13.64-.25,2-1.41s2-2.29,3.47-3.53l0.15-.12a15.32,15.32,0,0,0-3.34,12,15,15,0,0,0,3.16,7c1.36,1.67,2.3,1.4,4.31,1.38l6.39-.08a4.57,4.57,0,0,0,2-.37,5.65,5.65,0,0,0,2.07-2.26c2.72-4.27,3.25-11.5.57-16.26a7.13,7.13,0,0,0,1.22,1.33l0.09,0.08c5.24,1.22,10.29-2.5,13.33-6.79C386.11,139.72,386.86,135.68,383.53,133Z"/><path class="cls-3" d="M369.8,149.91h0C369.35,149.82,370.15,150.21,369.8,149.91Z"/><path class="cls-3" d="M389.46,130.06c0-.23-0.18,0,0,0h0Z"/><path class="cls-3" d="M396.89,130.42c-1.72-2.14-4.72-1.56-7-.47a0.84,0.84,0,0,1-.35.11,1.41,1.41,0,0,1-.08.31,0.88,0.88,0,0,1-.52.64c1.55-2.95,2-7.15-.74-9.38l0.41,0.08c1.18,0.25.57,1.59,1.71,1.84a5.8,5.8,0,0,0,1.27.39,26.85,26.85,0,0,0,3.21-2.17c3.64-2.54,5.85-9.21-.8-11a6.74,6.74,0,0,0-3.3,0c0.05-.16.19-0.56,0.09-0.37h0a2.67,2.67,0,0,1-.09.36,7.11,7.11,0,0,0-5.29,6,6.61,6.61,0,0,0,1,3.72l0.1,0.15a7.09,7.09,0,0,0-.91-0.26c-5-1-8.48,3.56-8.26,7a9.37,9.37,0,0,0,1.27,4.26c0.62,1.12,1.19,1.11,2.36,1.4s0.63,1.86,1.83,2.17a5.61,5.61,0,0,0,1.34.48c0.51-.09,2.57-2,3.16-2.54a6.52,6.52,0,0,0,.72-0.75,7,7,0,0,0,3.87,4.4C395.73,138.43,399.31,133.64,396.89,130.42Z"/><path class="cls-3" d="M389.87,108.67a2.82,2.82,0,0,0-.38-0.47,5.93,5.93,0,0,0-3.59-1.75,2.69,2.69,0,0,0-3,2c-0.38,2.07,1.53,3.86,3,4.15a3.4,3.4,0,0,0,2-.27,1.54,1.54,0,0,0,1.18-.75c0.27-.61.69,0.12,1-0.47A3.42,3.42,0,0,0,389.87,108.67Z"/><path class="cls-3" d="M339.35,117.77a1.41,1.41,0,0,0,1.37-.47c0.56-.4,1.13-0.8,1.74-1.2a2.1,2.1,0,0,0,.53-0.45,1.88,1.88,0,0,0,.31-0.91c0.66-2.22-3.08-5.91-6.46-3.56-2.24,1.59-.75,4.18.49,5.51A4.31,4.31,0,0,0,339.35,117.77Z"/><path class="cls-3" d="M338.93,121.64a9,9,0,0,0,2.29,2.13,16.67,16.67,0,0,0,2.54,1.75c0.83,0.39.22-.74,1.19-1a1.66,1.66,0,0,0,.55-0.26,7.13,7.13,0,0,0-2.13,5.2,8.07,8.07,0,0,0,1,3.67c0.52,0.93,1,.87,1.94,1l3,0.49a2.12,2.12,0,0,0,1,0,2.78,2.78,0,0,0,1.18-.93c2.46-3,4.23-9.92-1.6-10.86a5.13,5.13,0,0,0-4,1.09,2.57,2.57,0,0,1,1.3-.93,3.47,3.47,0,0,0,1-.35c0.37-.22-0.23,0,0-0.46a4.61,4.61,0,0,0-.5-5.37l0.08,0.06q0.7,0.51,1.37,1a1.53,1.53,0,0,0,.48.27,2,2,0,0,0,.85,0c2.11-.3,4.72-2.5,2.52-4.26a4.27,4.27,0,0,0-5.28.5,2.39,2.39,0,0,0-.62,1.57,0.73,0.73,0,0,0,.08.36,5.66,5.66,0,0,0-5-.65C337.53,117,337.82,120.1,338.93,121.64Z"/></g><g class="cls-2"><path class="cls-3" d="M285.26,138.64a1.08,1.08,0,0,0-.33-0.6c-10.24-11.51-24.69-20.58-40-17.87-11.52,2-21.09,9.32-29.41,17.7a1,1,0,0,0-.37.63,1.06,1.06,0,0,0,.38.74c1.78,1.92,3.51,3.87,5.42,5.64,11.66,10.82,26.49,15.68,41.4,10.15,8.64-3.25,15.6-9.5,22.54-15.69a1,1,0,0,0,.4-0.62A0.53,0.53,0,0,0,285.26,138.64Zm-35.11,14.21a14.55,14.55,0,1,1,14.55-14.55A14.55,14.55,0,0,1,250.15,152.86Z"/><path class="cls-3" d="M258.82,131.8a4,4,0,1,1-2.85-2.57A11,11,0,1,0,258.82,131.8ZM244,137.34l1.49-.22,0.67-1.35,0.67,1.35,1.49,0.22-1.08,1.05,0.26,1.49-1.34-.7-1.34.7,0.26-1.49Zm4.62,8.06-1.06-.56-1.06.56,0.2-1.18-0.86-.84,1.19-.17,0.53-1.07,0.53,1.07,1.19,0.17-0.86.84Zm7-.6-1.75-.92-1.75.92,0.33-1.95L251,141.48l2-.28,0.87-1.77,0.87,1.77,2,0.28-1.41,1.38Z"/></g><g class="cls-2"><path class="cls-3" d="M29.91,52.67q0,4.35,0,8.71a7.37,7.37,0,0,1-.22,2.24C29,65.89,26.37,67.1,24,68H46.21c-2.37-.95-5-2.16-5.71-4.43a7.37,7.37,0,0,1-.22-2.24q0-4.35,0-8.71"/><path class="cls-3" d="M36.39,30.92L35.87,31,35.41,31a9.65,9.65,0,0,0-2.26.65,7.82,7.82,0,0,0-2,1.23A7,7,0,0,0,30,34.25a10.64,10.64,0,0,0-1.72,5.43,9.42,9.42,0,0,0,0,1l0.22-.12c0.11-.07.56-0.46,0.68-0.55a9.61,9.61,0,0,1,3.26-1.77c1.22-.33,3.7-0.52,4.4-1.83a9.25,9.25,0,0,0,.72-2.15,13.87,13.87,0,0,0,.32-1.82Z"/><path class="cls-3" d="M70.7,2C69.61,0.74,60.28,5.28,51,13.56,43.88,20,38.85,26.88,37.28,30l2.11,2.11c3.41-1.3,10.76-5.41,17.75-11.66C66.39,12.19,71.8,3.22,70.7,2Z"/><rect class="cls-4" x="2.02" y="15.76" width="66.18" height="38.46" rx="5.58" ry="5.58"/></g><path class="cls-1" d="M284.13,31.53a11.57,11.57,0,0,0-1.92-2.73c-2.31-2.7-4.64-5.38-6.91-8.11A39,39,0,0,0,271.39,16c-2.11-1.83-2.45-.22-2.45-0.22,0,0.34,0,.69,0,1a17.34,17.34,0,0,0-8-4.62,16.46,16.46,0,0,0-5.65-.68c-1.57.11-3.38,1.22-4.81,1.21-1.68,0-3.59-1.22-5.46-1.25a17.29,17.29,0,0,0-5.63.92c-3.28,1.08-6.63,3.05-8.43,6q0-1.22,0-2.44s-0.34-1.61-2.45.22a38.94,38.94,0,0,0-3.92,4.68c-2.27,2.73-4.6,5.41-6.91,8.11a11.56,11.56,0,0,0-1.92,2.73,7.15,7.15,0,0,0-.14,4.86c1.62,5.61,5.57,10.54,9.36,15.09a3.52,3.52,0,0,0,4.27,1.06c2.86-1.21,4.1-5.93,4.24-8.47a15.4,15.4,0,0,0,0-1.75,31.52,31.52,0,0,1,3,2.81c1.68,2,1.26,5.12,2.25,7.52,1.53,3.69,4.39,5,8.27,5.31,4.54,0.37,10.72.9,13.85-2.9,1.75-2.12,1.88-4.58,2.53-7.1a8.13,8.13,0,0,1,3-4.2c0,0.05,0,.11,0,0.16,0.14,2.54,1.38,7.26,4.24,8.47a3.52,3.52,0,0,0,4.27-1.06c3.79-4.55,7.74-9.49,9.36-15.09A7.15,7.15,0,0,0,284.13,31.53ZM231,21.31l0.42,8.43C231.18,26.93,231.06,24.12,231,21.31ZM241.31,31a2.66,2.66,0,0,1-2.82-2.46,2.85,2.85,0,0,1,5.65,0A2.66,2.66,0,0,1,241.31,31Zm14.79,13A4.83,4.83,0,0,1,255,46.09a1.67,1.67,0,0,0-.33.45,2.46,2.46,0,0,0-.09.66,2.23,2.23,0,0,1-1.41,1.64,7,7,0,0,1-2.26.42h0a7,7,0,0,1-2.26-.42,2.23,2.23,0,0,1-1.41-1.64,2.46,2.46,0,0,0-.09-0.66,1.67,1.67,0,0,0-.33-0.45,4.83,4.83,0,0,1-1.12-2.17,2.74,2.74,0,0,1,.1-1.73A2.8,2.8,0,0,1,248,40.76a8.53,8.53,0,0,1,2.82.32h0a8.53,8.53,0,0,1,2.82-.32A2.8,2.8,0,0,1,256,42.19,2.75,2.75,0,0,1,256.1,43.92Zm4.75-13A2.66,2.66,0,0,1,258,28.5a2.85,2.85,0,0,1,5.65,0A2.66,2.66,0,0,1,260.85,31Z"/><g class="cls-2"><polygon class="cls-5" points="169.38 242.25 154.27 252.14 145.06 237.36 140.49 237.36 131.22 252 116.02 242.25 112.57 242.25 124.22 264.04 162.23 264.04 173.8 242.25 169.38 242.25"/><circle class="cls-5" cx="112.57" cy="239.2" r="4.7"/><circle class="cls-5" cx="173.8" cy="239.98" r="4.7"/><circle class="cls-5" cx="142.98" cy="232.16" r="5.79"/></g><g class="cls-2"><path class="cls-5" d="M283,235.5a11.39,11.39,0,0,0-18.1-9.23,15.24,15.24,0,0,0-28.89.37,11.4,11.4,0,1,0-8.49,20.18l0.11,19.55c2.2,0.71,23.56,7.27,45.66,0V246.77A11.44,11.44,0,0,0,283,235.5Z"/><path class="cls-5" d="M227.62,269l0,4.1c1.23,1.77,11.14,4.35,23,4.35s21.4-2.61,22.63-4.38v-4.1C251.18,276.23,229.82,269.67,227.62,269Z"/></g><g class="cls-2"><path class="cls-5" d="M336.18,250.62l9.19-10.5a3.78,3.78,0,1,0-5.7-5l-11.37,13a3.78,3.78,0,0,0,0,5q5.74,6.52,11.46,13a3.78,3.78,0,0,0,5.69-5Q340.83,255.9,336.18,250.62Z"/><path class="cls-5" d="M395.66,248q-5.74-6.52-11.46-13a3.78,3.78,0,0,0-5.69,5q4.63,5.29,9.28,10.57L378.6,261a3.78,3.78,0,0,0,5.7,5l11.37-13A3.78,3.78,0,0,0,395.66,248Z"/><path class="cls-5" d="M372.95,227a3.78,3.78,0,0,0-5,1.87l-18.55,40.57a3.78,3.78,0,1,0,6.88,3.15L374.81,232A3.78,3.78,0,0,0,372.95,227Z"/></g><path class="cls-1" d="M60.07,256.24q0-.33-0.06-0.66c-0.6-6-.14-12.23-0.14-18.3V214.13c0-2.19-2.32-4-5.14-4a6.21,6.21,0,0,0-2.68.6h0L22.37,221.07c-2.32.39-4.07,2-4.07,3.9v37.9a15.22,15.22,0,0,0-9.72,5.42c-3.92,4.85-3.18,10.68,1.65,13s11.91,0.3,15.83-4.55c2.28-2.82,2.35-5.56,2.45-8.79,0.36-11.49.09-23,.09-34.51v-5.8l21-7.31v31.34A15.23,15.23,0,0,0,40.4,257c-3.92,4.85-3.18,10.68,1.65,13s11.91,0.3,15.83-4.55C60.28,262.48,60.37,259.58,60.07,256.24Z"/><path class="cls-6" d="M398.13,24c-1.52-2.21-6-2.17-10.28-1.15,0.36-.08.37-5.56,0.41-6.2a0.41,0.41,0,0,0-.46-0.54c-9.89-.28-19.77,0-29.67,0H357.6l-14,0V28.46h2.67a1.47,1.47,0,0,1,1.46,1.46V39.1a1.47,1.47,0,0,1-1.46,1.46h-6.6a1.47,1.47,0,0,1-1.46-1.46V29.93a1.47,1.47,0,0,1,1.46-1.46h2.73V16.12c-4.88,0-9.76,0-14.64.06a0.23,0.23,0,0,0-.27.3A112.76,112.76,0,0,0,328.38,30a41.51,41.51,0,0,0,1.57,6.54,32,32,0,0,0,1.25,3.2c0.32,0.7,1.54,2.2,1.54,2.91a22.83,22.83,0,0,0,2.89,3.83,20.88,20.88,0,0,0,1.72,1.63,13.63,13.63,0,0,1,1.94,1.45A13.7,13.7,0,0,0,346,51.82h23.7c5.82-.36,9.82-4,12.56-8.84a16.1,16.1,0,0,0,9.51-3C396.81,36.16,400.85,28,398.13,24Zm-7.47,12.43a9.56,9.56,0,0,1-6.18,1.7A58.06,58.06,0,0,0,387.31,27c2.76-.84,6-1.1,7,0.36C395.85,29.63,393.54,34.29,390.66,36.48Z"/></svg>