<svg id="Layer_1" data-name="Layer 1" xmlns="http://www.w3.org/2000/svg" xmlns:xlink="http://www.w3.org/1999/xlink" viewBox="0 0 75.67 100.84"><defs><style>.cls-1{fill:url(#linear-gradient);}</style><linearGradient id="linear-gradient" x1="76.25" y1="456.45" x2="151.92" y2="456.45" gradientUnits="userSpaceOnUse"><stop offset="0" stop-color="#f7c36c"/><stop offset="1" stop-color="#f2a2b1"/></linearGradient></defs><title>icon-music</title><path class="cls-1" d="M151.75,470.47q0-.46-0.09-0.92c-0.85-8.45-.19-17.1-0.19-25.58V411.6c0-3.07-3.24-5.57-7.19-5.57a8.68,8.68,0,0,0-3.74.84l-0.06,0L99,421.31c-3.24.54-5.69,2.78-5.69,5.45v53a21.28,21.28,0,0,0-13.59,7.57c-5.47,6.78-4.44,14.93,2.3,18.2s16.65,0.42,22.12-6.37c3.19-3.95,3.28-7.78,3.43-12.29,0.5-16.07.13-32.17,0.13-48.24V430.5l29.35-10.22V464.1a21.29,21.29,0,0,0-12.84,7.45c-5.47,6.78-4.44,14.93,2.3,18.2s16.65,0.42,22.12-6.37C152,479.2,152.16,475.14,151.75,470.47Z" transform="translate(-76.25 -406.03)"/></svg>