<svg id="Layer_1" data-name="Layer 1" xmlns="http://www.w3.org/2000/svg" xmlns:xlink="http://www.w3.org/1999/xlink" viewBox="0 0 93.14 111.16"><defs><style>.cls-1{fill:url(#linear-gradient);}</style><linearGradient id="linear-gradient" x1="296.23" y1="248.29" x2="373.16" y2="300.8" gradientUnits="userSpaceOnUse"><stop offset="0" stop-color="#f7c36c"/><stop offset="1" stop-color="#f2a2b1"/></linearGradient></defs><title>icon-pisces</title><path class="cls-1" d="M366.21,263.73H349.37c1.72-21.86,14.21-34.27,15.11-35.14a7.5,7.5,0,0,0-10.3-10.9c-0.45.43-11.2,10.69-16.73,29a75.51,75.51,0,0,0-3.08,17.08H323.92a75.51,75.51,0,0,0-3.08-17.08c-5.53-18.28-16.28-28.54-16.73-29a7.5,7.5,0,1,0-10.28,10.93c0.21,0.2,13.16,12.76,15,35.12H288.07a7.5,7.5,0,0,0,0,15h20.21c-1.54,10.72-5.76,23-14.27,36.61a7.5,7.5,0,1,0,12.72,7.95c7.24-11.59,14.59-27.11,16.73-44.55h11.36c2.14,17.44,9.49,33,16.73,44.55a7.5,7.5,0,1,0,12.72-7.95c-8.53-13.66-12.77-25.91-14.35-36.61h16.29A7.5,7.5,0,0,0,366.21,263.73Z" transform="translate(-280.57 -215.66)"/></svg>