<svg id="Layer_1" data-name="Layer 1" xmlns="http://www.w3.org/2000/svg" xmlns:xlink="http://www.w3.org/1999/xlink" viewBox="0 0 146.8 113.74"><defs><style>.cls-1{fill:url(#linear-gradient);}</style><linearGradient id="linear-gradient" x1="670.48" y1="280.02" x2="817.28" y2="280.02" gradientUnits="userSpaceOnUse"><stop offset="0" stop-color="#f7c36c"/><stop offset="1" stop-color="#f2a2b1"/></linearGradient></defs><title>icon-cactus</title><path class="cls-1" d="M782.08,292.09c-4.7,8-13.39,14.87-22.9,12.66l-0.16-.14a13.62,13.62,0,0,1-2.28-2.42c5.16,8.69,4.65,21.92-.29,29.71-1.34,2.09-2.29,3.41-3.76,4.12a8.31,8.31,0,0,1-3.63.68q-5.83.05-11.65,0.14c-3.66,0-5.37.54-7.87-2.51a27.84,27.84,0,0,1-5.84-12.75c-1.21-7,1.05-16.69,6.11-22.56-0.09.08,0,1.08-.1,1.16-2.68,2.25-2.16,5.36-4.8,7.6-2.49,2.12-2.39,1.55-5.52,1.32-2.1-.15-4.24-0.44-6.34-0.64a19.37,19.37,0,0,1-7.88-2.32c-6.3-3.7-10-13.49-5.83-21.16-0.8,1,.32,2.49-0.85,3.51-1.57,1.37-1.76,1.33-4,1.07-1.51-.18-3-0.29-4.56-0.49a16.93,16.93,0,0,1-5.88-1.84c-5.82-3.25-9.88-12.13-4.14-17.19l0.12-.1a5.88,5.88,0,0,0-.67.35c-1.1.68-1.53,1.09-2.79,0.93a8.11,8.11,0,0,1-3.92-1.47,5.13,5.13,0,0,1,.62-8.71c5.68-3.52,11.21.86,11,4.77a10.88,10.88,0,0,1-.11,1.92c7.81-2.14,16.74,4.86,17.79,11.34a7,7,0,0,1,.14,2.36c0.19-.18.38-0.36,0.58-0.54C715.54,269.84,732,281.7,732,293a8,8,0,0,1-.68,4.41,5.93,5.93,0,0,1-.43.65,15.86,15.86,0,0,1,10.73-4.31,16.91,16.91,0,0,1,9.53,2.6,5.06,5.06,0,0,1,0-.61c-0.07-3.42-.35-7,0.32-10.4a14,14,0,0,1,2-5,6.71,6.71,0,0,1-1.33,0,21.39,21.39,0,0,1-9-3.24c-6.42-4.18-12.29-14.08-6.28-19.83a10.8,10.8,0,0,1,6.91-2.91,3.49,3.49,0,0,1-1.2-1.32,13.63,13.63,0,0,1-1.87-7.14c0.08-6,5.46-14.33,13-13.26,10.54,1.6,9.27,15.65,3.63,21.31a6,6,0,0,1-2.49,1.83,4.78,4.78,0,0,1-2,.05l-2.12-.3c6.19,2.35,11.58,7.7,12.89,12.6,0.4,1.49.6,2.47,0.25,3.39a3.49,3.49,0,0,1-.58,1c5.68-2.58,12.38-3,17.17.84C786.43,278.15,785.74,285.76,782.08,292.09Zm-24.22,10.48h0C757.09,302.39,758.47,303.11,757.86,302.56ZM805,233.24a14.23,14.23,0,0,0-10.34,10.13,11.34,11.34,0,0,0,.66,6.88c0,0.11.09,0.19,0.14,0.28a13,13,0,0,0-1.59-.58c-8.56-2.47-16.5,5.61-17.78,12.24a12.93,12.93,0,0,0,.46,7.79c0.86,2.13.2,1.5,3.27,2.89,2.29,1,3.19,2.9,4,4.7,0.36,0.84,2.37.66,3,.57,1-.15,5.62-3.64,6.94-4.56a14.93,14.93,0,0,0,1.62-1.34c0.26,3.4,3.76,7,6.79,8.26,7.44,3,16.27-5.36,11.6-11.41-3.15-4-9.12-3.18-14-1.32-0.39.15-.69-0.49-0.81-0.51a5.27,5.27,0,0,1-.56,1.09,6.61,6.61,0,0,0-.79,1.31c3.86-5.33,5.47-14.39.86-18.71,0.23,0.06,0,1.73.3,1.8,2.14,0.55.66,2.71,2.55,3.65a7,7,0,0,0,3,.5c0.93-.12,5.31-2.78,6.5-3.52,7-4.41,10.22-16.69-.41-19.93a10.89,10.89,0,0,0-5.41-.22m3-5.34a6.14,6.14,0,0,0-.74-0.94,13,13,0,0,0-6.52-3.67,5.55,5.55,0,0,0-6.3,2.77c-2.16,3.91,1.23,7.71,4.58,8.49,1.4,0.33,2.1.84,3.12-.2,0.87-.88,2.26-0.81,3.5-1.24,1.46-.51,3.07.55,3.73,0C809.83,231.77,808.88,229.22,808.06,227.9ZM698.94,252.84a13.11,13.11,0,0,0,3.77,4.07c1.48,1.1,3.63,3.26,5.51,4.11,1.57,0.7.29-2.09,2-2.59,0.4-.11.07-0.65,0.35-0.86a13.17,13.17,0,0,0-1.33,16.87c1.16,1.72,1.12,1.88,3.06,2.14s5.23,0.59,7.27.88a3.37,3.37,0,0,0,1.77-.36,5.11,5.11,0,0,0,2.24-1.78c4.92-5.52,4.8-18.82-5.39-20.51-3-.49-6.39-0.23-7.08,2.28a5.44,5.44,0,0,1,2.71-1.4c0.76-.21.81-0.78,1.27-1s-0.49-.08-0.1-1a9.83,9.83,0,0,0-1.84-10l0.14,0.1,2.42,1.78a2.6,2.6,0,0,0,.84.46A2.76,2.76,0,0,0,718,246c3.4-.74,6.52-5.54,2.72-8.42-2.74-2.05-6.59-.4-7.9,1.69a4.86,4.86,0,0,0-.71,2.95,1.56,1.56,0,0,0,.18.67c-1.9-1.47-4.57-2.11-7.93-1.11C697.13,243.91,697.3,249.84,698.94,252.84Zm-2.86-7c1.42,0.21,2,.47,2.93-0.44s1.74-2.4,3.32-3.09a1.89,1.89,0,0,0,.92-0.93,2.9,2.9,0,0,0,.18-1.8c-0.41-4.68-7.65-10-13.11-5.91-3.88,2.93-1.92,8.08,1.17,10.35A10.35,10.35,0,0,0,696.09,245.88Z" transform="translate(-670.48 -223.16)"/></svg>