<svg id="Layer_1" data-name="Layer 1" xmlns="http://www.w3.org/2000/svg" xmlns:xlink="http://www.w3.org/1999/xlink" viewBox="0 0 112.65 103.59"><defs><style>.cls-1{fill:url(#linear-gradient);}.cls-2{fill:url(#linear-gradient-2);}</style><linearGradient id="linear-gradient" x1="494.13" y1="451.58" x2="606.78" y2="451.58" gradientUnits="userSpaceOnUse"><stop offset="0" stop-color="#f7c36c"/><stop offset="1" stop-color="#f2a2b1"/></linearGradient><linearGradient id="linear-gradient-2" x1="511.68" y1="501.77" x2="590.1" y2="501.77" xlink:href="#linear-gradient"/></defs><title>icon-chef</title><path class="cls-1" d="M606.78,438.85A19.57,19.57,0,0,0,575.69,423a26.17,26.17,0,0,0-49.62.64,19.59,19.59,0,1,0-14.58,34.67l0.19,33.57c3.78,1.23,40.47,12.49,78.42-.07V458.21A19.65,19.65,0,0,0,606.78,438.85Z" transform="translate(-494.13 -405.47)"/><path class="cls-2" d="M511.68,494.55l0,7c2.11,3,19.13,7.47,39.52,7.47s36.75-4.48,38.87-7.53v-7C552.15,507,515.45,495.77,511.68,494.55Z" transform="translate(-494.13 -405.47)"/></svg>