<svg id="Layer_1" data-name="Layer 1" xmlns="http://www.w3.org/2000/svg" xmlns:xlink="http://www.w3.org/1999/xlink" viewBox="0 0 148.55 126.32"><defs><style>.cls-1{fill:url(#linear-gradient);}.cls-2{fill:url(#linear-gradient-2);}.cls-3{fill:url(#linear-gradient-3);}</style><linearGradient id="linear-gradient" x1="85.72" y1="145.09" x2="129.06" y2="145.09" gradientUnits="userSpaceOnUse"><stop offset="0" stop-color="#f7c36c"/><stop offset="1" stop-color="#f2a2b1"/></linearGradient><linearGradient id="linear-gradient-2" x1="34.17" y1="83.06" x2="182.72" y2="83.06" xlink:href="#linear-gradient"/><linearGradient id="linear-gradient-3" x1="90.07" y1="99.34" x2="109.14" y2="99.34" xlink:href="#linear-gradient"/></defs><title>icon-graphicdesign</title><path class="cls-1" d="M97.3,146.79a10.89,10.89,0,0,1-.43,3.79c-1.38,3.84-6.52,5.9-11.15,7.5h43.34c-4.63-1.6-9.77-3.65-11.15-7.5a10.89,10.89,0,0,1-.43-3.79q0-7.34.05-14.68H97.25Q97.25,139.45,97.3,146.79Z" transform="translate(-34.17 -31.74)"/><path class="cls-2" d="M171.1,48h-4.42c6.08-8.2,9-14.51,7.75-15.9-1.84-2.08-15.36,4-30.59,15.9H45.79A11.65,11.65,0,0,0,34.17,59.66v63.1a11.65,11.65,0,0,0,11.62,11.62H97.25v-0.06h20.29v0.06H171.1a11.65,11.65,0,0,0,11.62-11.62V59.66A11.65,11.65,0,0,0,171.1,48Zm1.21,71.08a6.26,6.26,0,0,1-6.25,6.25H50.82a6.26,6.26,0,0,1-6.25-6.25V63.8a6.26,6.26,0,0,1,6.25-6.25h81.89C119.92,69.54,111,82,108,87.83l4.2,4.2c6.76-2.58,21.37-10.75,35.25-23.17a150,150,0,0,0,11.36-11.31h7.21a6.26,6.26,0,0,1,6.25,6.25v55.32Z" transform="translate(-34.17 -31.74)"/><path class="cls-3" d="M105.25,89.73l-0.92.14a19.17,19.17,0,0,0-4.49,1.3,15.53,15.53,0,0,0-4,2.45,13.8,13.8,0,0,0-2.36,2.62A21.13,21.13,0,0,0,90.11,107a18.7,18.7,0,0,0,0,2,3.3,3.3,0,0,0,.44-0.23c0.22-.13,1.11-0.9,1.35-1.08a19.08,19.08,0,0,1,6.47-3.51c2.43-.66,7.35-1,8.74-3.64a18.37,18.37,0,0,0,1.43-4.27,27.54,27.54,0,0,0,.63-3.62l-2.85-3.07C105.94,89.65,105.6,89.68,105.25,89.73Z" transform="translate(-34.17 -31.74)"/></svg>