<svg id="Layer_1" data-name="Layer 1" xmlns="http://www.w3.org/2000/svg" xmlns:xlink="http://www.w3.org/1999/xlink" viewBox="0 0 132.43 71.05"><defs><style>.cls-1{fill:url(#linear-gradient);}</style><linearGradient id="linear-gradient" x1="482.68" y1="269.4" x2="615.11" y2="269.4" gradientUnits="userSpaceOnUse"><stop offset="0" stop-color="#f7c36c"/><stop offset="1" stop-color="#f2a2b1"/></linearGradient></defs><title>icon-eye</title><path class="cls-1" d="M615.11,269.66a2,2,0,0,0-.62-1.13c-19.33-21.73-46.62-38.85-75.58-33.75-21.74,3.82-39.83,17.59-55.53,33.42a2,2,0,0,0-.7,1.18,2,2,0,0,0,.71,1.39c3.35,3.62,6.63,7.3,10.23,10.64,22,20.43,50,29.6,78.17,19.17,16.32-6.15,29.46-17.93,42.56-29.63a1.83,1.83,0,0,0,.75-1.17A1,1,0,0,0,615.11,269.66Zm-66.3,26.84A27.47,27.47,0,1,1,576.28,269,27.47,27.47,0,0,1,548.81,296.5Zm16.81-37.23a7.62,7.62,0,1,1-5.82-7.37,20.68,20.68,0,1,0,5.38,4.85A7.55,7.55,0,0,1,565.62,259.27Zm-28.44,7.94,2.82-.41,1.26-2.56,1.26,2.56,2.82,0.41-2,2,0.48,2.81-2.52-1.33L538.74,272l0.48-2.81Zm8.72,15.23-2-1.05-2,1.05,0.38-2.23-1.62-1.58,2.24-.33,1-2,1,2,2.24,0.33-1.62,1.58Zm13.18-1.13-3.3-1.73-3.3,1.73,0.63-3.67-2.67-2.6,3.69-.54,1.65-3.34,1.65,3.34,3.69,0.54-2.67,2.6Z" transform="translate(-482.68 -233.88)"/></svg>