<svg id="Layer_1" data-name="Layer 1" xmlns="http://www.w3.org/2000/svg" xmlns:xlink="http://www.w3.org/1999/xlink" viewBox="0 0 128.53 121.06"><defs><style>.cls-1{fill:url(#linear-gradient);}</style><linearGradient id="linear-gradient" x1="289.93" y1="53.43" x2="381.36" y2="119.5" gradientUnits="userSpaceOnUse"><stop offset="0" stop-color="#f7c36c"/><stop offset="1" stop-color="#f2a2b1"/></linearGradient></defs><title>icon-texas</title><path class="cls-1" d="M392.37,87.16c-0.59-2-2.72-4.12-3.62-6.12a35.38,35.38,0,0,1-2.22-6.76,129.21,129.21,0,0,1-1.89-13.56A0.62,0.62,0,0,0,384,60a33.38,33.38,0,0,1-5.36-1,33.27,33.27,0,0,0-6-1.66c-2.23-.27-5,1.53-7.2,1.67-4.41.3-13.87-.65-16.84,1.22,0.47-.3-2.68-2.68-3.06-2.84a10.79,10.79,0,0,0-3.8-.56c-3.08-.08-6.47-0.27-7.82-2.14a9.7,9.7,0,0,1-2.85.75,2.38,2.38,0,0,1-1.28-.73c-1.06-1.16-1.22-3.11-1.42-4.61a95.48,95.48,0,0,1-.39-13.42c0-1,0-1.92,0-2.87a3,3,0,0,0-.21-1.43c-3.12-4.43-21.81-1.72-28.61-1.74l0.08,53.4L264.51,84c0.6,4,10.25,9.7,13.78,13.42,5.55,5.84,4.85,12.46,12,17.6,2.69,1.94,5.34,5.36,9.17,3.15,2.79-1.61,1.81-7.18,4.4-8.91,5.06-3.38,14.21.12,17.51,4.06,4.41,5.27,7.06,11.67,11.4,16.91,3.06,3.7,3.43,5.65,5.68,9.61,1.56,2.75,3.73,6.33,6.53,8,2.14,1.31,18.2,4.38,18.8,2.36,0.41-1.79-1.87-4-2.62-5.47a34.49,34.49,0,0,1-2.25-7.14c-0.21-.82-0.22-2,0.62-2.16a1.46,1.46,0,0,0,.76-0.15,0.75,0.75,0,0,0,.18-0.49c0.22-2.11-.13-5.92,1.55-7.55,1.27-1.23.39-1,4.44-4.51l0.92-3.28c-0.24-.21.52-0.39,0.82-0.5,2.82-1,6.67,0,9.22-1.54,5.19-3.12,1.21-9.19,4.92-12.62a39.73,39.73,0,0,0,4.57.75,5.35,5.35,0,0,0,4-2C393.17,100.27,393.58,91.26,392.37,87.16Zm-36.5,32.2-5.17-2.45-5,2.87,0.73-5.68-4.26-3.82,5.62-1.06,2.32-5.23,2.74,5,5.69,0.59-3.93,4.16Z" transform="translate(-264.51 -29.85)"/></svg>