<svg id="Layer_1" data-name="Layer 1" xmlns="http://www.w3.org/2000/svg" xmlns:xlink="http://www.w3.org/1999/xlink" viewBox="0 0 132.28 89.52"><defs><style>.cls-1{fill:url(#linear-gradient);}</style><linearGradient id="linear-gradient" x1="507.5" y1="64.72" x2="600.11" y2="136.87" gradientUnits="userSpaceOnUse"><stop offset="0" stop-color="#f7c36c"/><stop offset="1" stop-color="#f2a2b1"/></linearGradient></defs><title>icon-dog</title><path class="cls-1" d="M614.17,89.91a22.08,22.08,0,0,0-3.66-5.22c-4.4-5.15-8.86-10.27-13.19-15.48-2.38-2.86-4.61-6.46-7.48-8.94-4-3.5-4.67-.43-4.67-0.43,0,0.66,0,1.32,0,2C581.31,57.5,575.44,54.58,570,53a31.43,31.43,0,0,0-10.78-1.29c-3,.2-6.45,2.32-9.18,2.31-3.21,0-6.85-2.33-10.42-2.39a33,33,0,0,0-10.75,1.75c-6.26,2.06-12.65,5.83-16.1,11.44q0-2.33,0-4.66s-0.65-3.07-4.67.43c-2.86,2.49-5.1,6.08-7.48,8.94-4.33,5.2-8.78,10.32-13.19,15.48a22.07,22.07,0,0,0-3.66,5.22,13.65,13.65,0,0,0-.27,9.28c3.09,10.7,10.63,20.13,17.86,28.81a6.72,6.72,0,0,0,8.16,2c5.47-2.31,7.83-11.32,8.1-16.17a29.39,29.39,0,0,0,0-3.35,60.17,60.17,0,0,1,5.69,5.36c3.22,3.84,2.4,9.78,4.29,14.35,2.92,7,8.39,9.52,15.79,10.13,8.66,0.71,20.46,1.71,26.45-5.54,3.33-4,3.6-8.75,4.82-13.56,1-3.86,3.23-5.82,5.64-8,0,0.1,0,.21,0,0.31,0.27,4.86,2.63,13.86,8.1,16.17a6.72,6.72,0,0,0,8.16-2c7.23-8.69,14.77-18.11,17.86-28.81A13.65,13.65,0,0,0,614.17,89.91ZM512.78,70.4l0.79,16.08C513.1,81.13,512.86,75.77,512.78,70.4Zm19.65,18.43c-3,0-5.39-2.1-5.39-4.69s2.41-4.69,5.39-4.69,5.39,2.1,5.39,4.69S535.4,88.82,532.43,88.82Zm28.24,24.73a9.23,9.23,0,0,1-2.14,4.14,3.2,3.2,0,0,0-.63.85,4.7,4.7,0,0,0-.18,1.25,4.26,4.26,0,0,1-2.7,3.14,13.33,13.33,0,0,1-4.32.81h0a13.33,13.33,0,0,1-4.32-.81,4.26,4.26,0,0,1-2.7-3.14,4.69,4.69,0,0,0-.18-1.25,3.2,3.2,0,0,0-.63-0.85,9.22,9.22,0,0,1-2.14-4.14,5.24,5.24,0,0,1,.2-3.3,5.35,5.35,0,0,1,4.36-2.73,16.28,16.28,0,0,1,5.38.61h0.07a16.28,16.28,0,0,1,5.38-.61,5.35,5.35,0,0,1,4.36,2.73A5.24,5.24,0,0,1,560.67,113.56Zm9.06-24.73c-3,0-5.39-2.1-5.39-4.69s2.41-4.69,5.39-4.69,5.39,2.1,5.39,4.69S572.7,88.82,569.73,88.82Z" transform="translate(-482.83 -51.63)"/></svg>