<svg id="Layer_1" data-name="Layer 1" xmlns="http://www.w3.org/2000/svg" xmlns:xlink="http://www.w3.org/1999/xlink" viewBox="0 0 139.54 69.84"><defs><style>.cls-1{fill:url(#linear-gradient);}</style><linearGradient id="linear-gradient" x1="715.35" y1="28.47" x2="812.35" y2="139.47" gradientUnits="userSpaceOnUse"><stop offset="0" stop-color="#f7c36c"/><stop offset="1" stop-color="#f2a2b1"/></linearGradient></defs><title>icon-tea</title><path class="cls-1" d="M833.94,72.51c-3-4.32-11.66-4.23-20.06-2.25,0.7-.17.73-10.84,0.79-12.11a0.8,0.8,0,0,0-.91-1.06c-19.3-.54-38.58,0-57.88,0h-1c-9.17,0-18.35,0-27.52-.05V81.13h5.41A2.86,2.86,0,0,1,735.6,84v17.9a2.86,2.86,0,0,1-2.86,2.86H719.86a2.86,2.86,0,0,1-2.86-2.86V84a2.86,2.86,0,0,1,2.86-2.86h5.41V57.06c-9.54,0-19.09,0-28.63.11a0.46,0.46,0,0,0-.54.59,220,220,0,0,0,1.74,26.41,81,81,0,0,0,3.05,12.76,62.54,62.54,0,0,0,2.45,6.24c0.62,1.36,3,4.29,3,5.68a44.53,44.53,0,0,0,5.64,7.46,40.77,40.77,0,0,0,3.35,3.18c0.46,0.39,3.78,2.44,3.78,2.84a26.72,26.72,0,0,0,13.14,4.38h46.25c11.36-.7,19.15-7.82,24.5-17.24,5.17-.08,12.44-1.17,18.56-5.83C831.36,96.15,839.24,80.27,833.94,72.51ZM819.37,96.77c-4.12,3.14-9.13,3.45-12.05,3.32a113.28,113.28,0,0,0,5.52-21.82c5.38-1.65,11.67-2.14,13.62.7C829.49,83.41,825,92.5,819.37,96.77Z" transform="translate(-696.11 -56.86)"/></svg>