<svg id="Layer_1" data-name="Layer 1" xmlns="http://www.w3.org/2000/svg" xmlns:xlink="http://www.w3.org/1999/xlink" viewBox="0 0 101.71 113.76"><defs><style>.cls-1{fill:url(#linear-gradient);}</style><linearGradient id="linear-gradient" x1="89.16" y1="246.63" x2="159.16" y2="320.42" gradientUnits="userSpaceOnUse"><stop offset="0" stop-color="#f7c36c"/><stop offset="1" stop-color="#f2a2b1"/></linearGradient></defs><title>icon-moon</title><path class="cls-1" d="M169.86,271.23A57.26,57.26,0,0,1,112.6,328.5c-16.93,0-34-7.74-44.45-21.24,5.08,0.24,10.06.64,15.12,0.05,28.49-3.31,50.59-28.22,50.59-56.88a58.42,58.42,0,0,0-12.44-35.69C148.87,218,169.86,244.11,169.86,271.23Zm-27.28,32a5.51,5.51,0,1,0,0,7.79A5.51,5.51,0,0,0,142.58,303.28Zm-16.78-6.84a2.8,2.8,0,1,0,2.8,2.8A2.8,2.8,0,0,0,125.8,296.44ZM154,262.12a4.13,4.13,0,1,0-4.13-4.13A4.13,4.13,0,0,0,154,262.12Zm-36.93,46a7.35,7.35,0,1,0,7.35,7.35A7.35,7.35,0,0,0,117.07,308.11ZM160,265.9a3.13,3.13,0,1,0,3.13,3.13A3.13,3.13,0,0,0,160,265.9Z" transform="translate(-68.15 -214.74)"/></svg>