<svg id="Layer_1" data-name="Layer 1" xmlns="http://www.w3.org/2000/svg" xmlns:xlink="http://www.w3.org/1999/xlink" viewBox="0 0 340.1 340.1"><defs><style>.cls-1{fill:#fff;}.cls-2{fill:url(#linear-gradient);}.cls-3{fill:#f4b686;}.cls-4{fill:#f3b091;}</style><linearGradient id="linear-gradient" x1="78.64" y1="171.87" x2="275.72" y2="171.87" gradientUnits="userSpaceOnUse"><stop offset="0" stop-color="#f6c26c"/><stop offset="1" stop-color="#f1a1b0"/></linearGradient></defs><title>submark</title><circle class="cls-1" cx="170.05" cy="170.05" r="170.05"/><path class="cls-2" d="M89.95,247.83a4.9,4.9,0,0,0-3.84,2.36c-.91,1.45-1.93,1.61-3.57.69l2.3-2.1c-.57-2-1.77-3.16-4.28-2.83l.8-2c-1.67-.21-1.92-.75-2-2.78s-.46-3.82-.71-5.77a10.67,10.67,0,0,0,1.69-.48,1.08,1.08,0,0,0,.45-.85c-.06-2.52.13-3.12,1.46-5a4,4,0,0,0,.65-1.67c.33-2.36.3-2.37,2.76-3l2.48,3.9c1.31-1.91-1.5-3-.09-4.45a11.28,11.28,0,0,1-2-.47c-.22-.09-.34-.59-.34-.9s.38-.52.51-.49c1.58.38,2.16-.84,3-1.75.16-.18.45-.24.84-.43l2.3,2.38a7.09,7.09,0,0,0,.44-3.42c-.19-1.77.18-2.12,1.93-2.47a13.34,13.34,0,0,1,2.07-.43c2.36-.08,3.87-1.2,4.68-3.75l-2,1-.26-.35c1.37-1.12,2.7-2.3,4.12-3.34s3.14-2,4.63-3.08,2.82-2.29,4.72-3.86l-1.66-.49.45-.56c.41-.08.91-.35,1.2-.21,1.6.79,2.59,0,3.74-1,1.85-1.6,3.87-3,5.8-4.51.31-.24.74-.62.72-.92s-.3-.72.44-.81c2.65-.3,4.55-2.12,6.64-3.51.92-.61,1.47-1.62,2.75-1.91.64-.14,1.1-1.27,1.54-2,.13-.21-.11-.64-.17-1a4.54,4.54,0,0,0-.95.24c-.89.44-1.6-.11-1.4-.77.25-.84.24-1.19-.54-1.59-5.06-2.65-10.09-5.35-15.15-8a19.19,19.19,0,0,0-2.31-.84l.54-1.23c-.13-.09-.29-.29-.39-.27-2.08.53-3.45-.78-4.87-1.89a49.67,49.67,0,0,0-4.45-3.61c-1.58-1-3.85-1.06-5-2.3s-2.93-.55-4-2c-.9-1.23-2.44-2-3.51-3.1A4.24,4.24,0,0,0,89,158.54a45.69,45.69,0,0,0-3.61-3.91A7.86,7.86,0,0,1,82.86,147c.18-.59.56-1.44,1.22-.88,1.27,1.08,1.93.08,2.72-.53a9.84,9.84,0,0,0,1.14-1.21c-.05-1.14-1.87-1-1.25-2.44.52-1.18,1.47-.95,2.68-1.26l-.83,2c1.65-.45,2.1-1.7,2.61-2.76a3.27,3.27,0,0,1,2.21-2,3,3,0,0,0,2.57-3l5,2.33.29-.41c-.59-.5-1.21-1-1.77-1.52s-1.34-1.29-.37-2.22,1.29-.77,2.19.43a1.49,1.49,0,0,0,1.84.54c.83-.23,1.66-.48,2.68-.78l.6-2.16,4.28,3.51,1.44-1.5,3,2-.35,2.37a18.54,18.54,0,0,1-2.53-.5c-1.36-.46-2.34-.59-2.7,1.28-.08.43-1.56,1-2.15.84a1.89,1.89,0,0,0-2.59,1.17c-.47,1.71-1.58,1.81-2.91,1.84-.26,0-.52,0-.82.06-.42,2-2.16,2.65-3.68,3.34-.52.24-1.49-.52-2.25-.82-1.22,4.34-1.22,4.34.93,7.54l1.3-1.75L99,152.06l-1.12,1.07a12.39,12.39,0,0,0,2.89.87,9.29,9.29,0,0,0,2.67-.83c-1.69,1.79-1.22,3.59-.93,5.38l.62.08c.12-.42.12-.95.39-1.22s1.31-.92,1.39-.83c1.35,1.47,2.74.58,4.12.19.06,0,.15.08.41.24a14.41,14.41,0,0,0-.64,2c-.28,1.51.32,2.37,1.73,2.06,2.29-.51,3.89,1.23,5.92,1.5.34,0,.61.58.92.88l2.4,2a4.34,4.34,0,0,0,1.41.05c1.79-.55,1.77-.58,2.14,1.22a5.73,5.73,0,0,0,.2.65c1.12.94,2.94.29,3.64,1.89,0,.1.61,0,.93-.05a4.43,4.43,0,0,1,1,0c1,.18.53,2.62,2.37,1.56l2.28,2.12c.24-.22.56-.77.95-.82a2.05,2.05,0,0,1,1.37.57,34,34,0,0,1,2.45,2.41,1.83,1.83,0,0,1,.45.9c.39,2.29.6,2.46,2.88,2.38a11.87,11.87,0,0,1,1.3.09c0,.42,0,1.1.1,1.15,1.44.5,2.84,1.27,4.63,1-.38-2,0-3.49,2.13-4.2.7-.23,1.06-1.51,1.61-2.37l.7.72c1.24-.85,2.49-1.6,3.62-2.51a4.6,4.6,0,0,1,3.38-1.1c.2,0,.56-.18.59-.33.52-2.7,2.77-3.47,4.91-4.44l1.54,1.29c1.22-.61,1.92-1.17,1.32-2.7s1.49-3.63,3.65-3.9l2.49-.32-1.35-1.06c1.5-.8,2.87-1.6,3.13-3.34a.57.57,0,0,1,.35-.38c1.94-.4,2.42-2.16,3-3.57.75-1.73,2.17-2.13,3.65-2.67a4.65,4.65,0,0,0,1.49-.79c1-.86,1.85-1.82,2.78-2.73a7.89,7.89,0,0,0,1.06-.95c1.23-1.75,1.23-1.77,2.66.13.12-.65.47-1.34.28-1.8a2.39,2.39,0,0,1,1.32-3.11c1.82-.68,2.38-2.42,3.7-3.47.66-.53,1-1.25,1.92-.41,0,0,.79-.58.75-.71-.2-.52-.5-1.25-.91-1.37a2.93,2.93,0,0,0-1.91.32c-.39.19-.59.79-1.2,1.68-.11-1-.33-1.49-.18-1.83.62-1.42,2-2,3.33-2.38.65-.21,1.59-.11,1.95-.53a5.2,5.2,0,0,0,1-2.42,13.62,13.62,0,0,1,2.93-6.14c-1.21-3.28-1-4,1.66-5.29a36.12,36.12,0,0,1-1-5.4,25.16,25.16,0,0,1,.68-5c.18-1,.22-1-.82-1.87.62-2,1.21-4,1.82-5.89a3.18,3.18,0,0,1,.6-1.33c1.13-1.08,2.35-2.07,3.63-3.17-.86-.94-2.44-1.21-2.16-2.95l3.1.45c.32.76.59,1.51.95,2.21a1.74,1.74,0,0,0,1.77,1.24A2.62,2.62,0,0,1,216,99.29c-.13.49-.37.74-.06,1.35a5.74,5.74,0,0,1,.29,5.27,1.26,1.26,0,0,0,.13.93c.82,1.65,1.32,3.25.35,5.08a3.1,3.1,0,0,0,.17,2.21,2.3,2.3,0,0,1-.17,2.48,2.64,2.64,0,0,0,.18,3.69L215.19,125l1,.3c0,.23.1.44,0,.56a14,14,0,0,0-1.37,5.31c-.21,1.43,0,3.12-2.74,3.6l2.62.91a15,15,0,0,1-.36,3.88c-.41,1.15.7,2.68-.92,3.43,1.68,2.2,1.3,2.67-.62,4.82.27,1.1.84,2.07.63,2.84a3.59,3.59,0,0,0,1,3.72l-2.73,1.21c.73.87,1.54,1.71.77,3-.28.47,0,1.22-.15,1.82a23.16,23.16,0,0,1-1,4.54c-.8,1.93-.8,2.23,1.41,3.33.42-.4.78-1,1.29-1.18,1.84-.69,3.8-1.07,5.52-2.14a1.9,1.9,0,0,1,1.52,0,1.21,1.21,0,0,0,1.6-.44c.72-.78,1.49-1.53,2.73-1.06a.69.69,0,0,0,.6-.11,6,6,0,0,1,5.43-1.84c.94.12,2-.62,3-.79,1.19-.2,2.42-.17,3.63-.29a2.87,2.87,0,0,0,1.21-.38c2.73-1.72,4.25-1.84,7.27-.46l1.82-1.3,2,2.58c.71-1,.2-2.68,1.8-2.69.63,0,1.27.69,1.9.7,1.39,0,.06,1.33,1,1.58l1.79-.44a2.5,2.5,0,0,1,2.89,1.29c.57.87,1.24,1.67,1.91,2.56l1.19-1.28,2.92,2.49,1.39-1,.42,2.17,1.57-.28c-1.08,1-1.44,1.94-.69,3.28.22.4-.19,1.14-.35,2,1.91-.29,3.13.29,3.64,2.22.2.73,1.11,1.28,1.89,2.12l-2,1,.94,2.66,1.63,0c-.3,2,1.8,4.15-.31,6a13.48,13.48,0,0,1,1.77,3.44c.14.69-.78,1.6-1.4,2.75.22,1.23,2.52,2.73.79,4.62-1.16,1.26-.39,3.89-3,3.94l.49,3c-2-1.15-3-3.21-5.47-2.09.64.23,1.08.37,1.5.54,1.53.62,2,1.69.81,2.77s-.91,2.19,0,3.14c.69.73.63,1.17.23,2.05a12.73,12.73,0,0,0-.53,3.35c-1,.18-1.94.28-2.84.51-2,.51-2.3,1.09-1.6,3,.27.76.47,1.1-.42,1.66s-.22,1.38.35,1.93a13.21,13.21,0,0,0,1.27,1c-1.06,1.09-1.77.18-2.45-.15-1.11-.55-2.15-1.34-3.37,0l-1.46-3.83c-.71,2.07-2.29-.72-3.25.86.77.68,1.61,1.37,2.39,2.12,1.55,1.51,1.52,2.78-.16,4.15a3.14,3.14,0,0,0-1.23,1.84c-.19.71-1.38,1.16-2.22,1.8.07.47.4,1.21.17,1.68s-1.06.35-1.63.5c-.08,0-.23,0-.26,0-1.33,2-3.56.52-5.29,1.48,1.12.89,1.08,1.8-.27,2.66l-1-1.81c-.38.81-.27,2-1.41,1.79a11.41,11.41,0,0,1-2-.81,27.9,27.9,0,0,1-4.06,1.38,7.32,7.32,0,0,0-5,2.91L232,234.55c-.56.47-1,.88-1.45,1.2-.77.52-1.56.85-2.38,0-1.26-1.29-2.49-1-3.74.41l-1.08-2.49L216.28,231a.38.38,0,0,1-.2-.17c-1-2.29-3.3-3-5.17-4.24a4.62,4.62,0,0,1-2.35-2.76c-.12-.52-.79-.9-1.19-1.37a6.93,6.93,0,0,1-2-3c-.2-.89-1.31-1.58-2-2.36-.45-.5-1.13-.95-1.29-1.53-.23-.89.28-2.32-.2-2.72-.88-.74-.51-1.47-.74-2.2a20.44,20.44,0,0,0-2.36-4.17c-.09-.15-.21-.28-.42-.56,1-1.22.87-2.62.55-4.15a14.49,14.49,0,0,1-.06-3.69c.13-2.57.47-5.13.46-7.7,0-2.4-.14-4.8,0-7.21a2.48,2.48,0,0,0-.61-1.37,5.47,5.47,0,0,1-.71-4.25c.14-1,1.83-1.94.3-3.11,0,0,.06-.38.17-.47,1.73-1.33,1.55-3.42,2-5.22a29.55,29.55,0,0,0,.19-3.73c.09-.83.43-1.64.59-2.47a6.74,6.74,0,0,0,.35-2.6c-.92-4,.77-7.76.74-11.66a15.14,15.14,0,0,1,.45-1.73,2.21,2.21,0,0,0-.22-1.33,1.28,1.28,0,0,0-1.12.16c-.91,1.37-2.69,2-3,3.86-.26,1.35-1.39.61-2.31.79a2.85,2.85,0,0,1-1.54,2.87,35.86,35.86,0,0,0-5.33,5.25c-.22.23,0,.82-.06,1.26l-3.67.09a5.43,5.43,0,0,1-.22,2.08c-.29.56-1.16.78-1.64,1.28-1.69,1.78-3.33,3.61-5,5.44a28.12,28.12,0,0,1-6.27,5.44,59.08,59.08,0,0,0-4.77,3.63q-2.92,2.22-5.85,4.42c-.63.47-1.3.9-1.93,1.37-1.4,1-2.57,2.34-4.36,2.93-1.06.35-1.88,1.45-2.93,2.33,1.8,1.22,3-.63,4.65-.35-.32.62-.78,1.09-.71,1.45.11.58-.15,1.81,1.35,1.1,1-.5,1.25-.17,1.05,1.06-.06.36-.14,1,0,1.07,1.16.81,1.29,2.77,3.12,2.82.08,0,.2.07.22.13a5.84,5.84,0,0,0,.62,2.12c.43.51,1.34.6,1.94,1,.11.08-.15.92-.42,1.24s-.73.24-1.6.48l2.61,1.09c.76,1.44-.38,3.72,2.37,4.45l-1.92,1c.05.65.13,1.31.16,2a5.81,5.81,0,0,0,0,1.7,2.37,2.37,0,0,1-.48,2.67c-.87,1-1.51-.3-2.57-.09,1.52,1.84.82,3.47-.1,5.16a4.11,4.11,0,0,0-.29,1.61c-1.24,1.28-2.17,2.4-3.26,3.34-1.54,1.32-3.19,2.51-4.79,3.75-.42.32-1.08.53-1.25.95-1.12,2.87-3.95,3.25-6.25,4.35-.64.31-1.44.25-1,1.37a3.67,3.67,0,0,1-1.63,1,4.06,4.06,0,0,0-2.84,2.13,3.18,3.18,0,0,1-3.17,2c-.58,0-1.2.62-1.82.94a6.5,6.5,0,0,1-2.12,1,1.88,1.88,0,0,0-1.49.72,3.24,3.24,0,0,1-1.87.81c-1.13.17-2.21.13-2.81,1.48a1.3,1.3,0,0,1-2.05.41c-.91-.7-1.58-.5-2.25.34a2,2,0,0,1-.94.43c-1.75.55-3.5,1.1-5.25,1.63a3,3,0,0,0-2.54,2.72l-4.36-2.71c-.19.69-.34,1.58-1.78,1.78-.87.12-1.74.94-2.87.65a3.38,3.38,0,0,0-1.52-.06c-2.3.5-2.31.51-2.22-2-1.9.35-4.08-.59-5.43,1.68a1,1,0,0,1-.94.26c-2.2-1.3-4.08.09-6,.66a3.23,3.23,0,0,1-.51.06Zm124-36.46c.85.67,2.32.94,1.22,2.38-.09.12.2.66.44.88.89.84,1.84,1.61,2.73,2.45.73.68,1.39,1.44,2.1,2.14a10.45,10.45,0,0,0,1.46,1.3c2.16,1.44,3.75,4.19,7,3.07.27-.09.64.11,1,.21,2.75.91,3.66.47,4.82-2.22.12-.27.56-.4,1.21-.84a20.64,20.64,0,0,0-.4,2.19,1.44,1.44,0,0,0,1.79,1.68,3.43,3.43,0,0,0,1.2-.5,7.71,7.71,0,0,1,5.09-1.11c.14,0,.3-.12.48-.2l-.27-.92c1-.55,1.95-1,2.86-1.54,1.07-.6,2.38-1,3.13-1.87a57.19,57.19,0,0,1,7.67-7.82c.35-.28.4-1.07.42-1.64,0-.91.35-1.62,1.27-1.77a2.49,2.49,0,0,0,2.11-2.64,3.81,3.81,0,0,1,2.23-3.58,1.91,1.91,0,0,0,1.09-2.63c-.53-1.39,0-2.29,1.25-3.09,1-.65,2.12-1.53.71-2.91a.85.85,0,0,1-.13-.73c.59-1.7-.19-4.07,2.43-4.66-.36-.71-1.34-.92-.44-1.86a2.83,2.83,0,0,0-.16-4.41l1.38-3.76-.68-.54L267.6,179c-.79-2.17-1.18-3.36,0-4.74.79-1,.28-2.15-1.12-3l-.55,2.56c-1,0-1.36-.57-1.72-1.54-.41-1.13-1.23-2.67-2.16-2.92a8,8,0,0,1-2.65-1.48,3.72,3.72,0,0,0-1.85-.8c-1.21,0-2.52.6-3.6.29a4.24,4.24,0,0,0-3.62.37l.35-2.71c-2.36.87-1.49,3.54-3.2,4.94l-.74-2.72c-.75.12-1.42.22-2.09.35-.39.08-1,.09-1.12.34-1.65,2.54-4.46,2.41-6.92,3-.56.14-1.43.3-1.74,0-1.09-1-1.68-.53-2.64.25-1.18,1-2.31,2.32-4.08,2.16a4.35,4.35,0,0,0-4.07,1.4,3.39,3.39,0,0,1-2,.68,8,8,0,0,0-5.29,2.34,5.43,5.43,0,0,1-2,1,26.84,26.84,0,0,1-3,.54l-1.31,3,2.46,1.14-3.16.79c.22.49.74,1.11.6,1.39-.57,1.12,0,2,.26,3a9.89,9.89,0,0,1,.54,3.85,27.13,27.13,0,0,0,0,8.39c.26,1.51,0,3.06.53,4.57.23.62-.17,1.48-.32,2.49l3.41,1.92c0-.05,0,.05,0,.12C214.56,210.39,214.31,210.76,213.91,211.37ZM136.1,226.21c2.35.06,3-.13,3.56-1,1.59-2.27,3-4.77,6.07-5.36a2.34,2.34,0,0,0,1.05-.77c1.92-2,3.87-4,5.72-6.14s3-4.6,1.49-7.49c-.12-.23-.3-.51-.25-.73.2-1,.58-2-1.1-2,0,0-.21-.53-.13-.58.87-.7.28-1.24-.18-1.76-1.69-1.91-3.39-3.81-5.09-5.71-1.42-1.6-2.49-1.64-4-.26-.83.78-1.66,1.84-2.66,2.07-2.18.5-2.66,3.71-5.36,3.17,0,0-.12.12-.17.19-2,3.21-5.79,4.19-8.34,6.77-1.65,1.67-4,2.64-5.64,4.31a11.17,11.17,0,0,1-4.63,2.89,5.73,5.73,0,0,0-2.87,1.76c-1.61,2.35-4.87,2.44-6.3,4.91-1.54.15-2.11,1.4-2.84,2.47-.08.11-.31.12-.57.22l-1.46-1.44c-1.31,1.15-3,1.65-3.77,3.66,1.49-.41,2.08-1.95,3.91-2a11.62,11.62,0,0,1-1,1.19c-.58.52-1.48.87-1.76,1.51-.61,1.4-1.56,1.06-3,.42,1.15,1.93-.48,1.88-1,2.59-1.6,2.42-2.75,5.17-5,7.1-.1.08.12.47.07.69-.11.55-.3,1.08-.49,1.76,1.73.21,1.5,1.84,2.13,2.92A29.54,29.54,0,0,0,95,244.83l-1.68.52c1.27,1.49,1.63,1.46,2.27,0s-.15-2.15-.77-3.14c-.26-.41-.11-1.07-.14-1.62a8.32,8.32,0,0,1,1.4.37c.79.36,1.53,1.1,2.32,1.13s1.48-.65,2.12-1l6,3.36A8.53,8.53,0,0,0,104.6,242c-1-1-.86-1.83.34-2.5,2.39-1.34,3.23-1,4.43,1.51.1.2.4.31.62.47l4.23-1.61-.09-.46-3-.22c-.15-1.38.6-1.84,1.56-1.71,1.47.19,2.92.61,4.37.95,2.7.63,5.37.63,7.68-1.08,1.5-1.11,3.36-2,3.56-4.31a1.9,1.9,0,0,1,.85-1.27,42.9,42.9,0,0,0,4.11-2.18C134.39,228.73,136.57,228.66,136.1,226.21Z" transform="translate(-4.4 -5.8)"/><path class="cls-3" d="M140.28,119.21c.15,2.51-1.35,3.89-2.71,5.4a1.36,1.36,0,0,1-2,.34c-.7-.45-1.42-.86-2.43-1.47l-.19,2.51c-1.54.25-.84-2.73-2.84-1.61l.33,3c-.69,1.24-1.94-.91-2.15,1,0,.12-.95.21-1.45.19-1,0-2.07-.14-3.29-.23.29-1.24,1.18-2,.14-3.14-.75-.79.06-1.86,1.31-1.65a2.58,2.58,0,0,0,2.38-.63,3.11,3.11,0,0,1,2.39-.82c2.14.8,4-.41,5.92-.43C136.06,118.27,136.37,118.12,140.28,119.21Z" transform="translate(-4.4 -5.8)"/><path class="cls-4" d="M163.47,117.24l-.93-1.19,3.44-2.61.11,1.3,2.93-2c.73,1.53-.49,2.05-1.09,2.76,1.28,1.36,3.14-1,4.48,1.12-2.77.18-5.12,2.24-7.68-.16.8,1.13,1.42,2,2.88,2,1.14,0,2.14.95,3.44.85.3,0,.68,1.15,1,1.77l-.46.38-1.44-1.11c-2.26,2.18-3.53,2.2-5.08.1-2,.71-2,.68-3.23-.75-.42-.48-.91-.8-.51-1.55s.91-.7,1.56-.58C163,117.57,163.19,117.39,163.47,117.24Z" transform="translate(-4.4 -5.8)"/><path class="cls-3" d="M111.15,130.78a9.33,9.33,0,0,1,6.8-4.15c1.8-.19,2.4,0,3.11,1.58a29.53,29.53,0,0,1,1,3.17,5,5,0,0,1-4.52.53c-.84-.31-1.66-.62-2.49,0a.9.9,0,0,1-.67.06C113.82,130.47,112.31,131.5,111.15,130.78Z" transform="translate(-4.4 -5.8)"/><path class="cls-4" d="M156.57,118.56l.16,1.34a3,3,0,0,1-.82-.07c-2.28-.91-2.27-.92-3.67-4.78a30,30,0,0,0,3.11-.64c1.3-.4,1-1.63.94-2.93,1.82,1,3.32,1.87,4.13,3.49a4,4,0,0,1,.27,1.93c-.07,1.29-.79,1.88-2.12,1.7A18.76,18.76,0,0,0,156.57,118.56Z" transform="translate(-4.4 -5.8)"/><path class="cls-3" d="M143.67,117.36l-1.56-1.23c2.21-1.46,2.2-1.45,3.9-.08a8.42,8.42,0,0,1,1.65,1.29c.28.39.17,1.07.23,1.62-.46-.06-.92-.09-1.37-.18a4.84,4.84,0,0,1-.84-.38c-.32,2.05,1.49,4.51-1.3,6.15-.08-1.53-.12-2.78-.22-4,0-.16-.25-.38-.43-.44-1.79-.58-1.81-.63-.7-2.08A8.68,8.68,0,0,1,143.67,117.36Z" transform="translate(-4.4 -5.8)"/></svg>