<svg id="Layer_1" data-name="Layer 1" xmlns="http://www.w3.org/2000/svg" xmlns:xlink="http://www.w3.org/1999/xlink" viewBox="0 0 344.89 344.89"><defs><style>.cls-1{fill:url(#linear-gradient);}.cls-2{fill:#fff;}</style><linearGradient id="linear-gradient" x1="34.49" y1="103.47" x2="343.04" y2="257.74" gradientUnits="userSpaceOnUse"><stop offset="0" stop-color="#f6c26c"/><stop offset="1" stop-color="#f1a1b0"/></linearGradient></defs><title>submark-v2</title><circle class="cls-1" cx="172.45" cy="172.45" r="172.45"/><path class="cls-2" d="M89.4,249.42a5,5,0,0,0-3.89,2.4c-.93,1.47-2,1.64-3.62.7l2.33-2.13c-.58-2-1.8-3.2-4.35-2.86l.81-2c-1.7-.21-1.95-.76-2-2.82s-.46-3.88-.72-5.85a10.82,10.82,0,0,0,1.71-.49,1.09,1.09,0,0,0,.46-.86c-.06-2.55.13-3.16,1.48-5.08a4,4,0,0,0,.66-1.7c.33-2.4.31-2.4,2.8-3l2.52,4c1.32-1.94-1.52-3.05-.09-4.51a11.44,11.44,0,0,1-2-.48c-.22-.1-.34-.59-.35-.91s.38-.53.52-.49c1.6.39,2.19-.85,3-1.78.16-.18.46-.24.85-.44l2.33,2.41a7.19,7.19,0,0,0,.45-3.47c-.2-1.79.19-2.15,2-2.5a13.53,13.53,0,0,1,2.1-.44c2.39-.08,3.93-1.22,4.74-3.8l-2,1-.26-.35c1.39-1.13,2.73-2.33,4.18-3.38s3.18-2,4.69-3.12,2.85-2.32,4.78-3.92l-1.68-.5.45-.57c.41-.08.92-.36,1.22-.21,1.62.8,2.63,0,3.79-1,1.88-1.62,3.93-3,5.88-4.58.31-.25.75-.63.73-.94s-.3-.73.45-.82c2.69-.31,4.61-2.15,6.73-3.56.93-.62,1.5-1.64,2.79-1.93.65-.14,1.12-1.29,1.56-2,.13-.22-.11-.65-.18-1a4.61,4.61,0,0,0-1,.24c-.9.44-1.62-.11-1.42-.78.25-.85.24-1.2-.55-1.62-5.13-2.69-10.23-5.43-15.36-8.12a19.46,19.46,0,0,0-2.34-.86l.54-1.25c-.13-.1-.3-.3-.4-.27-2.11.54-3.5-.79-4.94-1.91A50.37,50.37,0,0,0,104.3,168c-1.6-1-3.91-1.08-5.1-2.33s-3-.56-4-2c-.91-1.25-2.47-2-3.56-3.14a4.29,4.29,0,0,0-3.21-1.69,46.33,46.33,0,0,0-3.66-4,8,8,0,0,1-2.53-7.69c.18-.6.57-1.46,1.23-.89,1.29,1.09,2,.09,2.76-.54a10,10,0,0,0,1.15-1.22c-.05-1.16-1.9-1.06-1.27-2.48.53-1.2,1.49-1,2.71-1.28l-.84,2c1.67-.46,2.13-1.72,2.65-2.8A3.31,3.31,0,0,1,92.86,138a3.07,3.07,0,0,0,2.6-3.07l5.1,2.36.3-.41c-.6-.51-1.23-1-1.79-1.54s-1.36-1.31-.37-2.25c.83-.8,1.31-.78,2.22.43a1.51,1.51,0,0,0,1.87.55c.84-.23,1.68-.49,2.72-.79l.61-2.2,4.35,3.56,1.47-1.52,3,2-.36,2.4A18.8,18.8,0,0,1,112,137c-1.38-.47-2.37-.6-2.73,1.3-.08.44-1.58,1.06-2.18.85a1.91,1.91,0,0,0-2.63,1.18c-.48,1.73-1.6,1.83-3,1.86-.26,0-.53,0-.83.06-.42,2-2.19,2.69-3.73,3.39-.53.24-1.51-.52-2.28-.83-1.24,4.4-1.24,4.4.94,7.65l1.32-1.78,1.59,1.59L97.4,153.4a12.56,12.56,0,0,0,2.93.88,9.42,9.42,0,0,0,2.71-.84c-1.72,1.82-1.24,3.64-.94,5.45l.63.09c.12-.42.12-1,.39-1.24s1.32-.93,1.41-.84c1.37,1.49,2.77.59,4.18.19.06,0,.15.08.41.24a14.61,14.61,0,0,0-.65,2c-.28,1.54.33,2.4,1.75,2.09,2.33-.51,3.95,1.25,6,1.53.34,0,.62.58.93.89l2.43,2.06a4.4,4.4,0,0,0,1.43.05c1.81-.56,1.8-.59,2.17,1.24a5.81,5.81,0,0,0,.21.66c1.13,1,3,.29,3.69,1.92,0,.1.62,0,.94-.05a4.5,4.5,0,0,1,1,0c1,.18.54,2.66,2.4,1.58l2.31,2.15c.24-.22.57-.78,1-.83a2.08,2.08,0,0,1,1.38.58,34.47,34.47,0,0,1,2.48,2.45,1.86,1.86,0,0,1,.46.91c.39,2.32.6,2.5,2.92,2.42a12,12,0,0,1,1.32.09c0,.42,0,1.11.1,1.16,1.46.51,2.88,1.28,4.7,1-.39-2.05,0-3.54,2.16-4.26.71-.23,1.07-1.53,1.63-2.4l.71.74c1.26-.86,2.52-1.63,3.67-2.54a4.66,4.66,0,0,1,3.43-1.12c.2,0,.57-.18.6-.33.52-2.74,2.81-3.51,5-4.5l1.56,1.3c1.24-.62,1.94-1.19,1.33-2.74s1.51-3.68,3.7-4l2.52-.33L173,160c1.52-.81,2.91-1.62,3.18-3.39a.57.57,0,0,1,.35-.39c2-.4,2.46-2.19,3.08-3.62.76-1.76,2.2-2.16,3.7-2.71a4.72,4.72,0,0,0,1.51-.8c1-.88,1.88-1.85,2.82-2.77a8,8,0,0,0,1.07-1c1.24-1.78,1.25-1.79,2.69.13.12-.66.48-1.35.29-1.83a2.42,2.42,0,0,1,1.34-3.15c1.85-.69,2.42-2.45,3.75-3.52.67-.54,1.05-1.27,1.95-.42,0,0,.81-.58.76-.72-.2-.53-.5-1.27-.93-1.39a3,3,0,0,0-1.93.33c-.4.2-.6.8-1.22,1.7-.11-1-.34-1.51-.18-1.86.63-1.44,2-2,3.38-2.42.66-.21,1.61-.11,2-.54a5.27,5.27,0,0,0,1-2.45,13.81,13.81,0,0,1,3-6.23c-1.22-3.33-1-4.07,1.68-5.36a36.63,36.63,0,0,1-1-5.47,25.52,25.52,0,0,1,.69-5c.18-1.06.22-1.06-.84-1.9.63-2.05,1.23-4,1.85-6a3.22,3.22,0,0,1,.61-1.35c1.15-1.09,2.38-2.09,3.68-3.21-.87-1-2.47-1.23-2.19-3l3.15.45c.33.77.6,1.53,1,2.24a1.77,1.77,0,0,0,1.8,1.25,2.66,2.66,0,0,1,2.28,3.16c-.13.5-.38.75-.06,1.37a5.82,5.82,0,0,1,.3,5.35,1.27,1.27,0,0,0,.13.94c.83,1.67,1.34,3.29.36,5.15a3.14,3.14,0,0,0,.17,2.24,2.33,2.33,0,0,1-.17,2.52,2.68,2.68,0,0,0,.18,3.74l-1.73,4.78,1,.31c0,.24.1.45,0,.57a14.2,14.2,0,0,0-1.39,5.39c-.21,1.45,0,3.16-2.78,3.65l2.66.92a15.2,15.2,0,0,1-.37,3.94c-.42,1.17.71,2.72-.93,3.48,1.7,2.23,1.31,2.71-.63,4.89.28,1.11.85,2.1.64,2.88a3.64,3.64,0,0,0,1.05,3.78l-2.77,1.22c.74.88,1.56,1.74.78,3-.28.47,0,1.24-.15,1.85a23.49,23.49,0,0,1-1,4.61c-.81,2-.81,2.27,1.43,3.38.43-.41.79-1,1.31-1.2,1.87-.7,3.85-1.09,5.59-2.17a1.92,1.92,0,0,1,1.54,0A1.23,1.23,0,0,0,224,165c.73-.79,1.51-1.55,2.76-1.08a.7.7,0,0,0,.61-.11,6.13,6.13,0,0,1,5.5-1.87c1,.13,2-.63,3-.8,1.21-.2,2.46-.17,3.68-.29a2.91,2.91,0,0,0,1.23-.38c2.76-1.75,4.31-1.86,7.37-.47l1.84-1.32,2.07,2.62c.72-1,.2-2.71,1.83-2.73.64,0,1.28.7,1.93.71,1.41,0,.06,1.34,1,1.61l1.82-.45a2.54,2.54,0,0,1,2.93,1.31c.58.88,1.26,1.69,1.93,2.6l1.21-1.3,3,2.52,1.41-1,.43,2.21,1.59-.28c-1.09,1-1.46,2-.7,3.32.22.4-.19,1.16-.36,2,1.93-.29,3.17.3,3.69,2.25.2.74,1.12,1.3,1.91,2.15l-2.07,1,1,2.7,1.65,0c-.31,2.07,1.82,4.21-.31,6a13.67,13.67,0,0,1,1.8,3.49c.14.7-.79,1.62-1.42,2.79.23,1.25,2.56,2.77.8,4.69-1.17,1.28-.4,3.94-3,4l.5,3c-2-1.16-3-3.26-5.54-2.11.65.24,1.09.38,1.52.55,1.55.63,2,1.72.82,2.81s-.92,2.22,0,3.18c.7.74.64,1.19.24,2.08a12.91,12.91,0,0,0-.54,3.4c-1,.18-2,.28-2.88.52-2,.51-2.33,1.11-1.63,3.08.28.77.48,1.12-.42,1.68s-.22,1.4.36,2a13.4,13.4,0,0,0,1.28,1c-1.07,1.1-1.79.19-2.49-.15-1.13-.55-2.18-1.36-3.42,0l-1.48-3.89c-.72,2.1-2.32-.73-3.3.87.78.69,1.63,1.39,2.42,2.15,1.57,1.53,1.54,2.82-.16,4.21a3.19,3.19,0,0,0-1.25,1.86c-.19.72-1.4,1.18-2.25,1.83.07.48.4,1.23.17,1.7s-1.08.36-1.66.51c-.08,0-.23,0-.26,0-1.35,2-3.61.53-5.36,1.5,1.13.9,1.1,1.82-.27,2.7l-1-1.83c-.39.82-.27,2.06-1.43,1.81a11.57,11.57,0,0,1-2-.82,28.3,28.3,0,0,1-4.12,1.4,7.43,7.43,0,0,0-5.1,3L233.5,236c-.56.47-1,.89-1.47,1.22-.78.53-1.58.86-2.41,0-1.28-1.31-2.52-1-3.79.42l-1.09-2.52-7.22-2.73a.38.38,0,0,1-.2-.17c-1-2.33-3.34-3-5.25-4.3a4.69,4.69,0,0,1-2.38-2.8c-.12-.53-.81-.92-1.21-1.39a7,7,0,0,1-2-3.09c-.21-.91-1.33-1.6-2-2.4-.46-.51-1.15-1-1.31-1.55-.24-.9.28-2.35-.2-2.75-.9-.75-.52-1.49-.75-2.23a20.73,20.73,0,0,0-2.4-4.22c-.09-.15-.21-.29-.43-.57,1-1.24.88-2.66.56-4.21a14.7,14.7,0,0,1-.06-3.74c.13-2.6.48-5.21.46-7.81,0-2.44-.15-4.87,0-7.31a2.51,2.51,0,0,0-.61-1.39,5.55,5.55,0,0,1-.72-4.31c.14-1,1.86-2,.31-3.16,0,0,.06-.39.18-.48,1.76-1.35,1.57-3.46,2-5.29a30,30,0,0,0,.19-3.78c.09-.85.43-1.66.6-2.5a6.84,6.84,0,0,0,.36-2.64c-.93-4,.79-7.87.75-11.83a15.35,15.35,0,0,1,.46-1.75,2.24,2.24,0,0,0-.22-1.35,1.3,1.3,0,0,0-1.14.16c-.92,1.39-2.73,2.08-3.09,3.92-.27,1.37-1.41.62-2.35.8a2.89,2.89,0,0,1-1.56,2.91,36.36,36.36,0,0,0-5.4,5.32c-.22.23,0,.83-.06,1.28l-3.72.09a5.51,5.51,0,0,1-.22,2.11c-.3.56-1.18.79-1.66,1.3-1.71,1.81-3.37,3.66-5,5.52a28.52,28.52,0,0,1-6.36,5.51,59.91,59.91,0,0,0-4.84,3.68q-3,2.25-5.94,4.48c-.64.48-1.32.91-2,1.39-1.42,1.06-2.61,2.37-4.42,3-1.08.36-1.9,1.47-3,2.36,1.82,1.24,3-.64,4.72-.35-.33.63-.79,1.1-.72,1.47.11.59-.15,1.84,1.37,1.11,1.06-.5,1.27-.17,1.07,1.08-.06.36-.14,1,0,1.09,1.18.82,1.3,2.81,3.16,2.86.08,0,.21.07.22.13a5.92,5.92,0,0,0,.63,2.15c.43.52,1.35.61,2,1,.11.08-.15.93-.43,1.26s-.74.24-1.62.49l2.64,1.1c.77,1.46-.38,3.78,2.41,4.51l-1.95,1c.06.66.14,1.32.16,2a5.89,5.89,0,0,0,0,1.72,2.4,2.4,0,0,1-.49,2.71c-.89,1-1.54-.3-2.61-.09,1.54,1.87.83,3.52-.1,5.23a4.17,4.17,0,0,0-.29,1.63c-1.25,1.3-2.2,2.44-3.31,3.39-1.56,1.34-3.23,2.55-4.86,3.8-.42.33-1.1.54-1.26,1-1.14,2.91-4,3.29-6.34,4.41-.65.31-1.46.25-1,1.39a3.72,3.72,0,0,1-1.65,1,4.11,4.11,0,0,0-2.88,2.16,3.22,3.22,0,0,1-3.21,2c-.58,0-1.22.63-1.84,1a6.59,6.59,0,0,1-2.15,1,1.91,1.91,0,0,0-1.51.73,3.28,3.28,0,0,1-1.89.82c-1.15.17-2.24.13-2.85,1.5a1.32,1.32,0,0,1-2.08.42c-.93-.71-1.6-.51-2.29.34a2,2,0,0,1-1,.43c-1.77.56-3.55,1.12-5.33,1.65a3,3,0,0,0-2.57,2.76l-4.43-2.74c-.19.7-.34,1.6-1.8,1.81-.88.12-1.76,1-2.91.66a3.43,3.43,0,0,0-1.54-.07c-2.33.51-2.35.51-2.25-2.07-1.93.36-4.14-.6-5.5,1.7a1,1,0,0,1-1,.27c-2.23-1.32-4.13.09-6.13.67a3.28,3.28,0,0,1-.52.06Zm125.71-37c.86.68,2.35,1,1.24,2.42-.09.12.21.67.44.89.9.85,1.87,1.63,2.77,2.48.74.69,1.41,1.46,2.13,2.17a10.6,10.6,0,0,0,1.48,1.32c2.19,1.46,3.81,4.25,7.14,3.11.27-.09.65.11,1,.22,2.79.92,3.71.48,4.89-2.25.12-.27.57-.41,1.23-.85a20.93,20.93,0,0,0-.4,2.22,1.46,1.46,0,0,0,1.81,1.71,3.48,3.48,0,0,0,1.22-.51,7.82,7.82,0,0,1,5.17-1.12c.14,0,.3-.12.48-.2l-.27-.93c1-.56,2-1,2.9-1.56,1.08-.6,2.41-1,3.17-1.89a58,58,0,0,1,7.78-7.93c.36-.29.4-1.09.42-1.66,0-.93.36-1.65,1.28-1.8,1.57-.26,2-1.41,2.14-2.68a3.86,3.86,0,0,1,2.26-3.63,1.94,1.94,0,0,0,1.11-2.67c-.54-1.41,0-2.32,1.27-3.13,1-.66,2.15-1.55.72-3a.86.86,0,0,1-.13-.74c.59-1.73-.2-4.13,2.46-4.73-.36-.72-1.36-.93-.45-1.88a2.87,2.87,0,0,0-.16-4.48l1.4-3.81-.69-.55-1.34,2.54c-.8-2.2-1.2-3.41,0-4.81.81-1,.28-2.18-1.14-3l-.56,2.59c-1.05,0-1.38-.58-1.74-1.57-.42-1.15-1.24-2.71-2.19-3a8.16,8.16,0,0,1-2.69-1.5,3.77,3.77,0,0,0-1.88-.81c-1.23,0-2.56.61-3.65.29a4.3,4.3,0,0,0-3.67.37l.35-2.75c-2.39.88-1.51,3.59-3.24,5l-.75-2.76c-.76.12-1.44.22-2.12.35-.4.08-1,.09-1.14.35-1.68,2.58-4.52,2.45-7,3.09-.57.15-1.45.3-1.77,0-1.1-1-1.7-.54-2.67.25-1.2,1-2.34,2.35-4.14,2.19a4.41,4.41,0,0,0-4.12,1.41,3.44,3.44,0,0,1-2,.69,8.11,8.11,0,0,0-5.36,2.37,5.51,5.51,0,0,1-2,1.06,27.22,27.22,0,0,1-3.05.55l-1.33,3,2.49,1.16-3.21.8c.23.49.75,1.12.61,1.41-.58,1.14,0,2,.27,3a10,10,0,0,1,.55,3.9,27.51,27.51,0,0,0,0,8.51c.27,1.53,0,3.1.53,4.64.23.63-.17,1.5-.32,2.52l3.46,2c0-.05,0,.06,0,.12C215.77,211.46,215.52,211.83,215.11,212.45ZM136.2,227.5c2.38.06,3-.13,3.61-1,1.61-2.3,3-4.84,6.15-5.43a2.37,2.37,0,0,0,1.07-.78c2-2.06,3.92-4.11,5.8-6.23s3-4.67,1.51-7.6c-.12-.23-.3-.52-.26-.74.2-1,.59-2.05-1.12-2,0,0-.21-.53-.14-.59.89-.71.29-1.25-.19-1.79-1.71-1.94-3.44-3.86-5.16-5.79-1.44-1.62-2.53-1.66-4-.26-.84.79-1.69,1.87-2.7,2.1-2.21.51-2.7,3.76-5.44,3.21,0,0-.12.12-.17.2-2,3.25-5.88,4.25-8.46,6.87-1.67,1.69-4.05,2.68-5.72,4.37a11.33,11.33,0,0,1-4.7,2.94,5.81,5.81,0,0,0-2.91,1.79c-1.63,2.38-4.94,2.48-6.39,5-1.56.15-2.14,1.42-2.88,2.51-.08.12-.32.13-.58.22L102.06,223c-1.33,1.17-3.06,1.68-3.83,3.72,1.51-.42,2.11-2,4-2a11.78,11.78,0,0,1-1,1.2c-.59.53-1.5.89-1.78,1.53-.61,1.42-1.58,1.07-3.06.43,1.17,2-.49,1.91-1,2.63-1.63,2.46-2.78,5.24-5.12,7.2-.1.08.12.48.07.7-.12.55-.3,1.09-.5,1.79,1.76.21,1.52,1.87,2.16,3a30,30,0,0,0,2.47,3.19l-1.71.53c1.29,1.51,1.66,1.48,2.3,0s-.15-2.18-.79-3.18c-.26-.41-.11-1.09-.14-1.65a8.43,8.43,0,0,1,1.42.38c.8.37,1.56,1.11,2.35,1.15s1.5-.66,2.15-1l6.13,3.41a8.66,8.66,0,0,0-2-2.57c-1-1-.87-1.86.35-2.54,2.43-1.36,3.27-1.06,4.49,1.53.1.21.41.31.62.47l4.29-1.63-.09-.47-3-.22c-.16-1.4.61-1.86,1.58-1.74,1.49.2,3,.62,4.43,1,2.74.64,5.45.64,7.79-1.1,1.52-1.13,3.41-2.05,3.61-4.37a1.93,1.93,0,0,1,.86-1.28,43.5,43.5,0,0,0,4.17-2.21C134.47,230.06,136.68,230,136.2,227.5Z" transform="translate(-2.65 -3.99)"/><path class="cls-2" d="M140.44,119c.15,2.54-1.37,3.94-2.75,5.48a1.38,1.38,0,0,1-2.07.35c-.71-.46-1.44-.88-2.47-1.49l-.19,2.55c-1.56.25-.85-2.77-2.88-1.64l.33,3c-.7,1.25-2-.93-2.18,1,0,.12-1,.21-1.47.2-1.05,0-2.1-.14-3.34-.23.3-1.26,1.2-2.07.14-3.18-.76-.8.06-1.89,1.33-1.67a2.61,2.61,0,0,0,2.41-.64,3.16,3.16,0,0,1,2.43-.83c2.17.81,4-.41,6-.43C136.16,118,136.48,117.89,140.44,119Z" transform="translate(-2.65 -3.99)"/><path class="cls-2" d="M164,117l-.94-1.21,3.49-2.65.11,1.31,3-2.08c.74,1.55-.5,2.08-1.11,2.8,1.3,1.38,3.19-1,4.54,1.14-2.81.18-5.19,2.27-7.79-.16.81,1.15,1.44,2.07,2.92,2.05,1.16,0,2.17,1,3.49.86.3,0,.69,1.16,1,1.79l-.46.38-1.46-1.12c-2.3,2.21-3.58,2.23-5.16.1-2.06.72-2,.69-3.27-.76-.42-.49-.92-.81-.52-1.58s.92-.71,1.58-.59C163.51,117.33,163.67,117.15,164,117Z" transform="translate(-2.65 -3.99)"/><path class="cls-2" d="M110.9,130.73a9.46,9.46,0,0,1,6.9-4.21c1.82-.19,2.43,0,3.15,1.6a29.94,29.94,0,0,1,1,3.21,5.08,5.08,0,0,1-4.58.54c-.85-.32-1.68-.63-2.53,0a.91.91,0,0,1-.68.06C113.61,130.41,112.08,131.45,110.9,130.73Z" transform="translate(-2.65 -3.99)"/><path class="cls-2" d="M157,118.34l.17,1.36a3.09,3.09,0,0,1-.83-.07c-2.31-.93-2.31-.93-3.72-4.85a30.39,30.39,0,0,0,3.16-.65c1.32-.41,1-1.65.95-3,1.85,1,3.36,1.9,4.19,3.54a4,4,0,0,1,.28,2c-.07,1.3-.8,1.9-2.15,1.72A19,19,0,0,0,157,118.34Z" transform="translate(-2.65 -3.99)"/><path class="cls-2" d="M143.88,117.12l-1.58-1.24c2.24-1.48,2.23-1.47,4-.08a8.54,8.54,0,0,1,1.67,1.31c.29.4.17,1.09.24,1.65-.46-.06-.93-.1-1.39-.19a4.91,4.91,0,0,1-.85-.38c-.33,2.08,1.51,4.57-1.32,6.24-.08-1.55-.13-2.82-.22-4.07,0-.16-.26-.38-.44-.44-1.81-.59-1.84-.64-.71-2.11A8.8,8.8,0,0,1,143.88,117.12Z" transform="translate(-2.65 -3.99)"/></svg>