<svg xmlns="http://www.w3.org/2000/svg" xmlns:xlink="http://www.w3.org/1999/xlink" viewBox="0 0 39.7 39.7"><defs><style>.cls-1{fill:#595a5d;}.cls-2{fill:url(#linear-gradient);}</style><linearGradient id="linear-gradient" x1="10.78" y1="20.63" x2="28.92" y2="20.63" gradientUnits="userSpaceOnUse"><stop offset="0" stop-color="#f7c36c"/><stop offset="1" stop-color="#f2a2b1"/></linearGradient></defs><title>success-iconAsset 1</title><g id="Layer_2" data-name="Layer 2"><g id="Layer_1-2" data-name="Layer 1"><circle class="cls-1" cx="19.85" cy="19.85" r="19.85"/><path class="cls-2" d="M28.6,17.18l-8.47,8.47-1.59,1.59a1.13,1.13,0,0,1-1.59,0l-1.59-1.59-4.24-4.24a1.13,1.13,0,0,1,0-1.59l1.59-1.59a1.13,1.13,0,0,1,1.59,0l3.44,3.45L25.41,14A1.13,1.13,0,0,1,27,14l1.59,1.59a1.13,1.13,0,0,1,0,1.59Z"/></g></g></svg>